<svg width="2230" height="2500" viewBox="0 0 2230 2500" fill="none" xmlns="http://www.w3.org/2000/svg">
<path d="M69.3728 630.34L1129.85 12.8833L2190.32 630.34V1864.25L1129.85 2481.71L69.3728 1864.25V630.34Z" fill="#CC0000"/>
<path d="M1159.58 1246.79L2145.72 678.902L2185.37 1823.61L1159.58 2443.05V1246.79Z" fill="white"/>
<path d="M2160.59 644.216L2157.61 1857.32L1128.86 2453.95L1123.9 1261.66L2160.59 644.216ZM1295.37 1360.77L1298.33 2157.61L1640.26 1958.4L1639.27 1357.8L1811.72 1255.71V1858.3L1984.17 1757.21L1985.17 950.462L1295.36 1360.78L1295.37 1360.77Z" fill="#CC0000"/>
<path d="M1197.25 21.8031C1149.67 -4.9565 1073.35 -4.9565 1025.78 21.8031L86.2282 561.951C38.6498 588.711 0.993042 656.106 0.993042 709.625V1789.92C0.993042 1844.42 39.6429 1910.83 86.2282 1937.6L1025.78 2477.74C1073.35 2504.49 1149.67 2504.49 1197.25 2477.74L2136.79 1937.6C2184.37 1910.84 2222.04 1843.43 2222.04 1789.92V709.625C2222.04 655.113 2183.38 588.711 2136.8 561.951L1197.25 21.8031ZM2030.76 586.725C2078.33 613.484 2078.33 658.084 2030.76 684.843L1208.14 1157.6C1160.57 1184.36 1084.26 1184.36 1036.69 1157.6L202.178 677.909C154.599 651.15 154.599 606.55 202.178 579.791L1024.78 107.038C1072.36 80.2787 1148.67 80.2787 1196.25 107.038L2030.74 586.725H2030.76ZM74.3293 787.918C74.3293 733.415 112.988 711.611 159.564 738.362L1001.01 1222.02C1048.57 1248.78 1086.24 1316.18 1086.24 1369.69V2329.08C1086.24 2383.59 1047.59 2405.38 1001.01 2378.63L159.564 1894.97C111.995 1868.21 74.3293 1800.82 74.3293 1747.3V787.918ZM1246.8 2363.76C1199.22 2390.52 1161.57 2368.72 1161.57 2314.21V1369.69C1161.57 1315.18 1200.22 1248.78 1246.79 1222.02L2063.46 753.232C2111.04 726.472 2148.69 748.275 2148.69 802.787V1747.3C2148.69 1801.81 2110.04 1868.21 2063.46 1894.97L1246.8 2363.76Z" fill="#910505"/>
<ellipse cx="1111.5" cy="591" rx="143.5" ry="88" fill="white"/>
<ellipse cx="1111.5" cy="933" rx="143.5" ry="88" fill="white"/>
<ellipse cx="1111.5" cy="251" rx="143.5" ry="88" fill="white"/>
<ellipse cx="1759.5" cy="635" rx="143.5" ry="88" fill="white"/>
<ellipse cx="494.5" cy="619" rx="143.5" ry="88" fill="white"/>
<ellipse cx="246.85" cy="1030.85" rx="143.5" ry="88" transform="rotate(62.808 246.85 1030.85)" fill="white"/>
<ellipse cx="259.85" cy="1716.85" rx="143.5" ry="88" transform="rotate(62.808 259.85 1716.85)" fill="white"/>
<ellipse cx="868.85" cy="2064.85" rx="143.5" ry="88" transform="rotate(62.808 868.85 2064.85)" fill="white"/>
<ellipse cx="855.85" cy="1414.85" rx="143.5" ry="88" transform="rotate(62.808 855.85 1414.85)" fill="white"/>
</svg>
